<?xml version="1.0" encoding="UTF-8"?><svg id="Ebene_1" xmlns="http://www.w3.org/2000/svg" xmlns:xlink="http://www.w3.org/1999/xlink" viewBox="0 0 390.24 390.24"><defs><style>.cls-1{fill:#fff;}.cls-2{fill:#1b0035;}.cls-3{fill:#6c82ba;}.cls-4{fill:#889aeb;}.cls-5{fill:#6370ab;}.cls-6{isolation:isolate;opacity:.08;}.cls-7{opacity:.25;}.cls-8{opacity:.6;}</style></defs><path class="cls-1" d="M280.6,331.81H109.6c-31.4,0-56.9-25.5-56.9-56.9V103.91c0-31.4,25.5-56.9,56.9-56.9h171c31.4,0,56.9,25.5,56.9,56.9v171c0,31.4-25.5,56.9-56.9,56.9Z"/><g id="path3033" class="cls-8"><image class="cls-6" width="164" height="163" transform="translate(77.01 46.41)" xlink:href="3F8370DD0EDDFD0D.png"/><g><path class="cls-3" d="M187.4,150.61c-3-37.2-48.4-56.2-59-59.6-1.1-.4-2.2,.4-2.2,1.6,0,1.9,0,3.8-.1,5.7,0,1.6,.9,3.1,2.4,3.7,18.2,8,45.8,24.7,58.9,48.6"/><g class="cls-7"><path class="cls-2" d="M187.4,150.61c-3-37.2-48.4-56.2-59-59.6-1.1-.4-2.2,.4-2.2,1.6,0,1.9,0,3.8-.1,5.7,0,1.6,.9,3.1,2.4,3.7,18.2,8,45.8,24.7,58.9,48.6"/></g></g></g><g id="path3029"><image class="cls-6" width="196" height="259" transform="translate(47.01 90.41)" xlink:href="3F8370DD0EDDFD30.png"/><g><path class="cls-4" d="M159,155.81c-18.4-12.5-40.2-18.4-51.3-20.5-3.8-.7-7.4,2.2-7.5,6-.2,7.4-.4,14.8-.6,22.2-.1,4.4,3,8.3,7.4,9,30.6,4.7,32.4,26,30.3,40l-30.6,9.8c-5.1,1.6-8.7,6.3-8.8,11.7l-1.3,48.2c-.2,5.9,5.7,10,11.2,7.9l57.1-22.1c4.7-1.9,9.5-3.8,14.2-5.7,5.9-2.3,9.9-8,9.9-14.4v-37.2c.1-21.4-10.8-41.8-30-54.9"/><g class="cls-7"><path class="cls-2" d="M159,155.81c-18.4-12.5-40.2-18.4-51.3-20.5-3.8-.7-7.4,2.2-7.5,6-.2,7.4-.4,14.8-.6,22.2-.1,4.4,3,8.3,7.4,9,30.6,4.7,32.4,26,30.3,40l-30.6,9.8c-5.1,1.6-8.7,6.3-8.8,11.7l-1.3,48.2c-.2,5.9,5.7,10,11.2,7.9l57.1-22.1c4.7-1.9,9.5-3.8,14.2-5.7,5.9-2.3,9.9-8,9.9-14.4v-37.2c.1-21.4-10.8-41.8-30-54.9"/></g></g></g><g id="path3031"><image class="cls-6" width="182" height="174" transform="translate(148.01 63.41)" xlink:href="3F8370DD0EDDFD10.png"/><g><path class="cls-5" d="M197.6,178.91c3.3-44.9,57.1-65.6,73.9-70.4,2.5-.7,5,1.1,5.1,3.8,.1,3.7,.2,7.4,.2,11.1,0,2.3-1.5,4.3-3.7,4.9-19.5,4.9-59,21.2-75.5,50.6"/><g class="cls-7"><path class="cls-2" d="M197.6,178.91c3.3-44.9,57.1-65.6,73.9-70.4,2.5-.7,5,1.1,5.1,3.8,.1,3.7,.2,7.4,.2,11.1,0,2.3-1.5,4.3-3.7,4.9-19.5,4.9-59,21.2-75.5,50.6"/></g></g></g><g id="path3033-2" class="cls-8"><image class="cls-6" width="164" height="163" transform="translate(147.01 46.41)" xlink:href="3F8370DD0EDDFD11.png"/><g><path class="cls-3" d="M196.5,150.91c3-37.2,48.4-56.2,59-59.6,1.1-.4,2.2,.4,2.2,1.6,0,1.9,0,3.8,.1,5.7,0,1.6-.9,3.1-2.4,3.7-18.2,8-45.8,24.8-58.9,48.6"/><g class="cls-7"><path class="cls-2" d="M196.5,150.91c3-37.2,48.4-56.2,59-59.6,1.1-.4,2.2,.4,2.2,1.6,0,1.9,0,3.8,.1,5.7,0,1.6-.9,3.1-2.4,3.7-18.2,8-45.8,24.8-58.9,48.6"/></g></g></g><g id="path3029-2"><image class="cls-6" width="195" height="258" transform="translate(149.01 91.41)" xlink:href="3F8370DD0EDDFD12.png"/><g><path class="cls-4" d="M228.3,156.41c18.4-12.5,40.2-18.4,51.3-20.5,3.8-.7,7.4,2.2,7.5,6,.2,7.4,.4,14.8,.6,22.2,.1,4.4-3,8.3-7.4,9-30.6,4.7-32.4,26-30.3,40l30.6,9.8c5.1,1.6,8.7,6.3,8.8,11.7l1.3,48.2c.2,5.9-5.7,10-11.2,7.9l-57.1-22.1c-4.7-1.9-9.5-3.8-14.2-5.7-5.9-2.3-9.9-8-9.9-14.4v-37.2c-.1-21.4,10.8-41.8,30-54.9"/><g class="cls-7"><path class="cls-2" d="M228.3,156.41c18.4-12.5,40.2-18.4,51.3-20.5,3.8-.7,7.4,2.2,7.5,6,.2,7.4,.4,14.8,.6,22.2,.1,4.4-3,8.3-7.4,9-30.6,4.7-32.4,26-30.3,40l30.6,9.8c5.1,1.6,8.7,6.3,8.8,11.7l1.3,48.2c.2,5.9-5.7,10-11.2,7.9l-57.1-22.1c-4.7-1.9-9.5-3.8-14.2-5.7-5.9-2.3-9.9-8-9.9-14.4v-37.2c-.1-21.4,10.8-41.8,30-54.9"/></g></g></g><g id="path3031-2"><image class="cls-6" width="182" height="173" transform="translate(60.01 65.41)" xlink:href="3F8370DD0EDDFD1E.png"/><g><path class="cls-5" d="M188.9,180.01c-3.3-44.9-57.1-65.6-73.9-70.4-2.5-.7-5,1.1-5.1,3.8-.1,3.7-.2,7.4-.2,11.1,0,2.3,1.5,4.3,3.7,4.9,19.5,4.9,59,21.2,75.5,50.6"/><g class="cls-7"><path class="cls-2" d="M188.9,180.01c-3.3-44.9-57.1-65.6-73.9-70.4-2.5-.7-5,1.1-5.1,3.8-.1,3.7-.2,7.4-.2,11.1,0,2.3,1.5,4.3,3.7,4.9,19.5,4.9,59,21.2,75.5,50.6"/></g></g></g></svg>